<svg width="171" height="42" viewBox="0 0 171 42" fill="none" xmlns="http://www.w3.org/2000/svg">
<g filter="url(#filter0_d)">
<rect x="4" width="163" height="34" rx="5" fill="black"/>
<rect x="4.5" y="0.5" width="162" height="33" rx="4.5" stroke="#AFABD4"/>
</g>
<path d="M26.141 24.7681L26.1442 24.7692L24.9634 26.8144C24.5324 27.5609 23.5778 27.8167 22.8312 27.3857C22.0847 26.9547 21.8289 26 22.2599 25.2535L23.1298 23.7468L23.2132 23.6023C23.3623 23.3879 23.7302 23.0182 24.4662 23.0877C24.4662 23.0877 26.1979 23.2756 26.3232 24.1757C26.3233 24.1757 26.3404 24.4719 26.141 24.7681ZM42.889 19.5443H39.2068C38.956 19.5276 38.8465 19.438 38.8035 19.386L38.8008 19.3812L34.8591 12.554L34.854 12.5574L34.6176 12.2185C34.2302 11.626 33.615 13.1413 33.615 13.1413C32.8804 14.8298 33.7192 16.7495 34.0117 17.3297L39.4864 26.8122C39.9174 27.5588 40.8721 27.8146 41.6186 27.3836C42.3651 26.9526 42.6209 25.9979 42.1899 25.2514L40.8209 22.8802C40.7944 22.8228 40.7482 22.6667 41.029 22.6661H42.889C43.751 22.6661 44.4499 21.9673 44.4499 21.1052C44.4499 20.2432 43.751 19.5443 42.889 19.5443ZM35.7369 21.6663C35.7369 21.6663 35.9335 22.6661 35.173 22.6661H34.4125V22.6661H21.5609C20.6988 22.6661 20 21.9673 20 21.1052C20 20.2432 20.6988 19.5443 21.5609 19.5443H25.0604C25.6254 19.5116 25.7593 19.1855 25.7593 19.1855L25.7624 19.187L30.3305 11.2749L30.3291 11.2746C30.4124 11.1218 30.343 10.9774 30.331 10.9545L28.8224 8.34158C28.3914 7.59503 28.6472 6.64039 29.3937 6.20939C30.1403 5.77835 31.0949 6.03415 31.5259 6.7807L32.2256 7.99257L32.924 6.78285C33.355 6.0363 34.3096 5.7805 35.0562 6.21154C35.8027 6.64258 36.0585 7.59722 35.6275 8.34374L29.2709 19.3536C29.2431 19.4206 29.2346 19.5258 29.4414 19.5443H33.241L33.2418 19.5814C33.2418 19.5814 35.4379 19.6155 35.7369 21.6663Z" fill="white"/>
<path d="M59.3931 22C59.0944 22 58.8651 21.872 58.7051 21.616C58.5451 21.36 58.5291 21.088 58.6571 20.8L63.1531 10.064C63.3131 9.69067 63.5744 9.504 63.9371 9.504C64.3211 9.504 64.5824 9.69067 64.7211 10.064L69.2331 20.832C69.3504 21.1307 69.3291 21.4027 69.1691 21.648C69.0197 21.8827 68.7904 22 68.4811 22C68.3211 22 68.1664 21.9573 68.0171 21.872C67.8784 21.776 67.7771 21.648 67.7131 21.488L66.8171 19.248H61.0731L60.1611 21.488C60.0864 21.6587 59.9744 21.7867 59.8251 21.872C59.6864 21.9573 59.5424 22 59.3931 22ZM61.6331 17.872H66.2571L63.9691 12.176L61.6331 17.872ZM71.7951 25.744C71.5604 25.744 71.3631 25.664 71.2031 25.504C71.0537 25.3547 70.9791 25.1627 70.9791 24.928V17.632C70.9897 16.7893 71.1871 16.032 71.5711 15.36C71.9551 14.688 72.4777 14.16 73.1391 13.776C73.8004 13.3813 74.5471 13.184 75.3791 13.184C76.2217 13.184 76.9737 13.3813 77.6351 13.776C78.2964 14.16 78.8191 14.688 79.2031 15.36C79.5977 16.032 79.7951 16.7893 79.7951 17.632C79.7951 18.4747 79.6137 19.232 79.2511 19.904C78.8991 20.5653 78.4137 21.0933 77.7951 21.488C77.1764 21.872 76.4777 22.064 75.6991 22.064C75.0697 22.064 74.4884 21.936 73.9551 21.68C73.4324 21.4133 72.9844 21.056 72.6111 20.608V24.928C72.6111 25.1627 72.5364 25.3547 72.3871 25.504C72.2377 25.664 72.0404 25.744 71.7951 25.744ZM75.3791 20.624C75.9231 20.624 76.4084 20.496 76.8351 20.24C77.2617 19.9733 77.5977 19.616 77.8431 19.168C78.0991 18.7093 78.2271 18.1973 78.2271 17.632C78.2271 17.056 78.0991 16.544 77.8431 16.096C77.5977 15.6373 77.2617 15.28 76.8351 15.024C76.4084 14.7573 75.9231 14.624 75.3791 14.624C74.8457 14.624 74.3604 14.7573 73.9231 15.024C73.4964 15.28 73.1604 15.6373 72.9151 16.096C72.6697 16.544 72.5471 17.056 72.5471 17.632C72.5471 18.1973 72.6697 18.7093 72.9151 19.168C73.1604 19.616 73.4964 19.9733 73.9231 20.24C74.3604 20.496 74.8457 20.624 75.3791 20.624ZM83.0451 25.744C82.8104 25.744 82.6131 25.664 82.4531 25.504C82.3037 25.3547 82.2291 25.1627 82.2291 24.928V17.632C82.2397 16.7893 82.4371 16.032 82.8211 15.36C83.2051 14.688 83.7277 14.16 84.3891 13.776C85.0504 13.3813 85.7971 13.184 86.6291 13.184C87.4717 13.184 88.2237 13.3813 88.8851 13.776C89.5464 14.16 90.0691 14.688 90.4531 15.36C90.8477 16.032 91.0451 16.7893 91.0451 17.632C91.0451 18.4747 90.8637 19.232 90.5011 19.904C90.1491 20.5653 89.6637 21.0933 89.0451 21.488C88.4264 21.872 87.7277 22.064 86.9491 22.064C86.3197 22.064 85.7384 21.936 85.2051 21.68C84.6824 21.4133 84.2344 21.056 83.8611 20.608V24.928C83.8611 25.1627 83.7864 25.3547 83.6371 25.504C83.4877 25.664 83.2904 25.744 83.0451 25.744ZM86.6291 20.624C87.1731 20.624 87.6584 20.496 88.0851 20.24C88.5117 19.9733 88.8477 19.616 89.0931 19.168C89.3491 18.7093 89.4771 18.1973 89.4771 17.632C89.4771 17.056 89.3491 16.544 89.0931 16.096C88.8477 15.6373 88.5117 15.28 88.0851 15.024C87.6584 14.7573 87.1731 14.624 86.6291 14.624C86.0957 14.624 85.6104 14.7573 85.1731 15.024C84.7464 15.28 84.4104 15.6373 84.1651 16.096C83.9197 16.544 83.7971 17.056 83.7971 17.632C83.7971 18.1973 83.9197 18.7093 84.1651 19.168C84.4104 19.616 84.7464 19.9733 85.1731 20.24C85.6104 20.496 86.0957 20.624 86.6291 20.624ZM101.351 22.064C100.604 22.064 99.9106 21.952 99.2706 21.728C98.6412 21.4933 98.1506 21.2 97.7986 20.848C97.6386 20.6773 97.5692 20.4853 97.5906 20.272C97.6226 20.048 97.7292 19.8667 97.9106 19.728C98.1239 19.5573 98.3319 19.488 98.5346 19.52C98.7479 19.5413 98.9292 19.632 99.0786 19.792C99.2599 19.9947 99.5479 20.1867 99.9426 20.368C100.348 20.5387 100.796 20.624 101.287 20.624C101.905 20.624 102.375 20.5227 102.695 20.32C103.025 20.1173 103.196 19.856 103.207 19.536C103.217 19.216 103.063 18.9387 102.743 18.704C102.433 18.4693 101.863 18.2773 101.031 18.128C99.9532 17.9147 99.1692 17.5947 98.6786 17.168C98.1986 16.7413 97.9586 16.2187 97.9586 15.6C97.9586 15.056 98.1186 14.608 98.4386 14.256C98.7586 13.8933 99.1692 13.6267 99.6706 13.456C100.172 13.2747 100.695 13.184 101.239 13.184C101.943 13.184 102.567 13.296 103.111 13.52C103.655 13.744 104.087 14.0533 104.407 14.448C104.556 14.6187 104.625 14.8 104.615 14.992C104.604 15.1733 104.513 15.328 104.343 15.456C104.172 15.5733 103.969 15.6107 103.735 15.568C103.5 15.5253 103.303 15.4293 103.143 15.28C102.876 15.024 102.588 14.848 102.279 14.752C101.969 14.656 101.612 14.608 101.207 14.608C100.737 14.608 100.337 14.688 100.007 14.848C99.6866 15.008 99.5266 15.2427 99.5266 15.552C99.5266 15.744 99.5746 15.92 99.6706 16.08C99.7772 16.2293 99.9799 16.368 100.279 16.496C100.577 16.6133 101.015 16.7307 101.591 16.848C102.796 17.0827 103.628 17.4187 104.087 17.856C104.556 18.2827 104.791 18.8107 104.791 19.44C104.791 19.9307 104.657 20.3733 104.391 20.768C104.135 21.1627 103.751 21.4773 103.239 21.712C102.737 21.9467 102.108 22.064 101.351 22.064ZM110.038 22C109.505 22 109.025 21.8667 108.598 21.6C108.171 21.3227 107.835 20.9493 107.59 20.48C107.345 20.0107 107.222 19.4827 107.222 18.896V14.944H106.486C106.262 14.944 106.081 14.88 105.942 14.752C105.803 14.624 105.734 14.464 105.734 14.272C105.734 14.0587 105.803 13.888 105.942 13.76C106.081 13.632 106.262 13.568 106.486 13.568H107.222V11.264C107.222 11.0293 107.297 10.8373 107.446 10.688C107.595 10.5387 107.787 10.464 108.022 10.464C108.257 10.464 108.449 10.5387 108.598 10.688C108.747 10.8373 108.822 11.0293 108.822 11.264V13.568H110.182C110.406 13.568 110.587 13.632 110.726 13.76C110.865 13.888 110.934 14.0587 110.934 14.272C110.934 14.464 110.865 14.624 110.726 14.752C110.587 14.88 110.406 14.944 110.182 14.944H108.822V18.896C108.822 19.3227 108.939 19.68 109.174 19.968C109.409 20.256 109.697 20.4 110.038 20.4H110.582C110.774 20.4 110.934 20.4747 111.062 20.624C111.201 20.7733 111.27 20.9653 111.27 21.2C111.27 21.4347 111.179 21.6267 110.998 21.776C110.827 21.9253 110.603 22 110.326 22H110.038ZM117.244 22.064C116.38 22.064 115.617 21.8773 114.956 21.504C114.295 21.12 113.772 20.5973 113.388 19.936C113.015 19.264 112.828 18.496 112.828 17.632C112.828 16.7573 113.015 15.9893 113.388 15.328C113.772 14.656 114.295 14.1333 114.956 13.76C115.617 13.376 116.38 13.184 117.244 13.184C118.097 13.184 118.855 13.376 119.516 13.76C120.177 14.1333 120.695 14.656 121.068 15.328C121.452 15.9893 121.644 16.7573 121.644 17.632C121.644 18.496 121.457 19.264 121.084 19.936C120.711 20.5973 120.193 21.12 119.532 21.504C118.871 21.8773 118.108 22.064 117.244 22.064ZM117.244 20.624C117.799 20.624 118.289 20.496 118.716 20.24C119.143 19.984 119.473 19.632 119.708 19.184C119.953 18.736 120.076 18.2187 120.076 17.632C120.076 17.0453 119.953 16.528 119.708 16.08C119.473 15.6213 119.143 15.264 118.716 15.008C118.289 14.752 117.799 14.624 117.244 14.624C116.689 14.624 116.199 14.752 115.772 15.008C115.345 15.264 115.009 15.6213 114.764 16.08C114.519 16.528 114.396 17.0453 114.396 17.632C114.396 18.2187 114.519 18.736 114.764 19.184C115.009 19.632 115.345 19.984 115.772 20.24C116.199 20.496 116.689 20.624 117.244 20.624ZM124.873 22C124.339 22 124.073 21.7333 124.073 21.2V14.048C124.073 13.5147 124.339 13.248 124.873 13.248C125.406 13.248 125.673 13.5147 125.673 14.048V14.352C125.993 13.9787 126.382 13.6853 126.841 13.472C127.31 13.2587 127.817 13.152 128.361 13.152C129.001 13.152 129.475 13.2587 129.785 13.472C130.105 13.6747 130.227 13.92 130.153 14.208C130.099 14.432 129.993 14.5813 129.833 14.656C129.673 14.72 129.486 14.7307 129.273 14.688C128.59 14.5493 127.977 14.5387 127.433 14.656C126.889 14.7733 126.457 14.992 126.137 15.312C125.827 15.632 125.673 16.0373 125.673 16.528V21.2C125.673 21.7333 125.406 22 124.873 22ZM135.325 22.064C134.44 22.064 133.651 21.8773 132.957 21.504C132.275 21.12 131.736 20.5973 131.341 19.936C130.957 19.264 130.765 18.496 130.765 17.632C130.765 16.7573 130.947 15.9893 131.309 15.328C131.683 14.656 132.195 14.1333 132.845 13.76C133.496 13.376 134.243 13.184 135.085 13.184C135.917 13.184 136.632 13.3707 137.229 13.744C137.827 14.1067 138.28 14.6133 138.589 15.264C138.909 15.904 139.069 16.6453 139.069 17.488C139.069 17.6907 139 17.8613 138.861 18C138.723 18.128 138.547 18.192 138.333 18.192H132.253C132.371 18.928 132.707 19.5307 133.261 20C133.827 20.4587 134.515 20.688 135.325 20.688C135.656 20.688 135.992 20.6293 136.333 20.512C136.685 20.384 136.968 20.24 137.181 20.08C137.341 19.9627 137.512 19.904 137.693 19.904C137.885 19.8933 138.051 19.9467 138.189 20.064C138.371 20.224 138.467 20.4 138.477 20.592C138.488 20.784 138.403 20.9493 138.221 21.088C137.859 21.376 137.405 21.6107 136.861 21.792C136.328 21.9733 135.816 22.064 135.325 22.064ZM135.085 14.56C134.296 14.56 133.661 14.7787 133.181 15.216C132.701 15.6533 132.397 16.2187 132.269 16.912H137.597C137.501 16.2293 137.24 15.6693 136.813 15.232C136.387 14.784 135.811 14.56 135.085 14.56Z" fill="white"/>
<defs>
<filter id="filter0_d" x="0" y="0" width="171" height="42" filterUnits="userSpaceOnUse" color-interpolation-filters="sRGB">
<feFlood flood-opacity="0" result="BackgroundImageFix"/>
<feColorMatrix in="SourceAlpha" type="matrix" values="0 0 0 0 0 0 0 0 0 0 0 0 0 0 0 0 0 0 127 0"/>
<feOffset dy="4"/>
<feGaussianBlur stdDeviation="2"/>
<feColorMatrix type="matrix" values="0 0 0 0 0 0 0 0 0 0 0 0 0 0 0 0 0 0 0.25 0"/>
<feBlend mode="normal" in2="BackgroundImageFix" result="effect1_dropShadow"/>
<feBlend mode="normal" in="SourceGraphic" in2="effect1_dropShadow" result="shape"/>
</filter>
</defs>
</svg>
