<svg width="172" height="42" viewBox="0 0 172 42" fill="none" xmlns="http://www.w3.org/2000/svg">
<g filter="url(#filter0_d)">
<rect x="4" width="164" height="34" rx="5" fill="black"/>
<rect x="4.5" y="0.5" width="163" height="33" rx="4.5" stroke="#AFABD4"/>
</g>
<path d="M60.6453 22.16C59.7813 22.16 58.9706 22 58.2133 21.68C57.4666 21.3493 56.8106 20.896 56.2453 20.32C55.6906 19.7333 55.2533 19.0507 54.9333 18.272C54.624 17.4933 54.4693 16.6507 54.4693 15.744C54.4693 14.848 54.624 14.016 54.9333 13.248C55.2533 12.4693 55.6906 11.792 56.2453 11.216C56.8106 10.6293 57.4666 10.1707 58.2133 9.84C58.96 9.50933 59.7706 9.344 60.6453 9.344C61.4666 9.344 62.1706 9.45067 62.7573 9.664C63.3546 9.87733 63.952 10.2293 64.5493 10.72C64.6773 10.8267 64.7626 10.928 64.8053 11.024C64.848 11.12 64.8693 11.2373 64.8693 11.376C64.8693 11.5787 64.7946 11.7493 64.6453 11.888C64.5066 12.0267 64.3306 12.1013 64.1173 12.112C63.9146 12.1227 63.7226 12.0533 63.5413 11.904C63.1466 11.5627 62.736 11.3013 62.3093 11.12C61.8933 10.9387 61.3386 10.848 60.6453 10.848C60.016 10.848 59.424 10.976 58.8693 11.232C58.3146 11.488 57.824 11.84 57.3973 12.288C56.9813 12.736 56.656 13.2587 56.4213 13.856C56.1866 14.4427 56.0693 15.072 56.0693 15.744C56.0693 16.4267 56.1866 17.0667 56.4213 17.664C56.656 18.2507 56.9813 18.768 57.3973 19.216C57.824 19.664 58.3146 20.016 58.8693 20.272C59.424 20.5173 60.016 20.64 60.6453 20.64C61.1146 20.64 61.5626 20.5707 61.9893 20.432C62.416 20.2933 62.8266 20.096 63.2213 19.84V16.992H61.0133C60.7786 16.992 60.5813 16.9227 60.4213 16.784C60.2613 16.6453 60.1813 16.4693 60.1813 16.256C60.1813 16.0427 60.2613 15.8667 60.4213 15.728C60.5813 15.5893 60.7786 15.52 61.0133 15.52H64.0053C64.2506 15.52 64.448 15.6 64.5973 15.76C64.7466 15.9093 64.8213 16.1067 64.8213 16.352V20.176C64.8213 20.2827 64.8 20.3893 64.7573 20.496C64.7253 20.592 64.6613 20.6827 64.5653 20.768C64 21.2373 63.3866 21.5893 62.7253 21.824C62.064 22.048 61.3706 22.16 60.6453 22.16ZM70.6502 22.064C69.7862 22.064 69.0235 21.8773 68.3622 21.504C67.7009 21.12 67.1782 20.5973 66.7942 19.936C66.4209 19.264 66.2342 18.496 66.2342 17.632C66.2342 16.7573 66.4209 15.9893 66.7942 15.328C67.1782 14.656 67.7009 14.1333 68.3622 13.76C69.0235 13.376 69.7862 13.184 70.6502 13.184C71.5035 13.184 72.2609 13.376 72.9222 13.76C73.5835 14.1333 74.1009 14.656 74.4742 15.328C74.8582 15.9893 75.0502 16.7573 75.0502 17.632C75.0502 18.496 74.8635 19.264 74.4902 19.936C74.1169 20.5973 73.5995 21.12 72.9382 21.504C72.2769 21.8773 71.5142 22.064 70.6502 22.064ZM70.6502 20.624C71.2049 20.624 71.6955 20.496 72.1222 20.24C72.5489 19.984 72.8795 19.632 73.1142 19.184C73.3595 18.736 73.4822 18.2187 73.4822 17.632C73.4822 17.0453 73.3595 16.528 73.1142 16.08C72.8795 15.6213 72.5489 15.264 72.1222 15.008C71.6955 14.752 71.2049 14.624 70.6502 14.624C70.0955 14.624 69.6049 14.752 69.1782 15.008C68.7515 15.264 68.4155 15.6213 68.1702 16.08C67.9249 16.528 67.8022 17.0453 67.8022 17.632C67.8022 18.2187 67.9249 18.736 68.1702 19.184C68.4155 19.632 68.7515 19.984 69.1782 20.24C69.6049 20.496 70.0955 20.624 70.6502 20.624ZM81.4471 22.064C80.5831 22.064 79.8204 21.8773 79.1591 21.504C78.4977 21.12 77.9751 20.5973 77.5911 19.936C77.2177 19.264 77.0311 18.496 77.0311 17.632C77.0311 16.7573 77.2177 15.9893 77.5911 15.328C77.9751 14.656 78.4977 14.1333 79.1591 13.76C79.8204 13.376 80.5831 13.184 81.4471 13.184C82.3004 13.184 83.0577 13.376 83.7191 13.76C84.3804 14.1333 84.8977 14.656 85.2711 15.328C85.6551 15.9893 85.8471 16.7573 85.8471 17.632C85.8471 18.496 85.6604 19.264 85.2871 19.936C84.9137 20.5973 84.3964 21.12 83.7351 21.504C83.0737 21.8773 82.3111 22.064 81.4471 22.064ZM81.4471 20.624C82.0017 20.624 82.4924 20.496 82.9191 20.24C83.3457 19.984 83.6764 19.632 83.9111 19.184C84.1564 18.736 84.2791 18.2187 84.2791 17.632C84.2791 17.0453 84.1564 16.528 83.9111 16.08C83.6764 15.6213 83.3457 15.264 82.9191 15.008C82.4924 14.752 82.0017 14.624 81.4471 14.624C80.8924 14.624 80.4017 14.752 79.9751 15.008C79.5484 15.264 79.2124 15.6213 78.9671 16.08C78.7217 16.528 78.5991 17.0453 78.5991 17.632C78.5991 18.2187 78.7217 18.736 78.9671 19.184C79.2124 19.632 79.5484 19.984 79.9751 20.24C80.4017 20.496 80.8924 20.624 81.4471 20.624ZM91.9239 22.064C91.1239 22.064 90.4146 21.8773 89.7959 21.504C89.1879 21.12 88.7079 20.5973 88.3559 19.936C88.0039 19.264 87.8279 18.496 87.8279 17.632C87.8279 16.7573 88.0146 15.9893 88.3879 15.328C88.7719 14.656 89.2946 14.1333 89.9559 13.76C90.6173 13.376 91.3799 13.184 92.2439 13.184C93.0973 13.184 93.8546 13.376 94.5159 13.76C95.1773 14.1333 95.6946 14.656 96.0679 15.328C96.4519 15.9893 96.6439 16.7573 96.6439 17.632V21.088C96.6439 21.9307 96.4573 22.6933 96.0839 23.376C95.7106 24.0693 95.1879 24.6187 94.5159 25.024C93.8546 25.4293 93.0866 25.632 92.2119 25.632C91.4546 25.632 90.7453 25.4827 90.0839 25.184C89.4226 24.8853 88.8626 24.448 88.4039 23.872C88.2653 23.6907 88.2119 23.504 88.2439 23.312C88.2866 23.12 88.3933 22.9653 88.5639 22.848C88.7559 22.72 88.9533 22.6773 89.1559 22.72C89.3693 22.7627 89.5399 22.8693 89.6679 23.04C89.9559 23.4027 90.3186 23.6853 90.7559 23.888C91.1933 24.0907 91.6893 24.192 92.2439 24.192C92.7559 24.192 93.2253 24.0693 93.6519 23.824C94.0893 23.5787 94.4359 23.216 94.6919 22.736C94.9479 22.256 95.0759 21.6693 95.0759 20.976V20.192C94.7453 20.768 94.3079 21.2267 93.7639 21.568C93.2199 21.8987 92.6066 22.064 91.9239 22.064ZM92.2439 20.624C92.7986 20.624 93.2893 20.496 93.7159 20.24C94.1426 19.984 94.4733 19.632 94.7079 19.184C94.9533 18.736 95.0759 18.2187 95.0759 17.632C95.0759 17.0453 94.9533 16.528 94.7079 16.08C94.4733 15.6213 94.1426 15.264 93.7159 15.008C93.2893 14.752 92.7986 14.624 92.2439 14.624C91.6893 14.624 91.1986 14.752 90.7719 15.008C90.3453 15.264 90.0093 15.6213 89.7639 16.08C89.5186 16.528 89.3959 17.0453 89.3959 17.632C89.3959 18.2187 89.5186 18.736 89.7639 19.184C90.0093 19.632 90.3453 19.984 90.7719 20.24C91.1986 20.496 91.6893 20.624 92.2439 20.624ZM101.153 22C100.683 22 100.267 21.872 99.9048 21.616C99.5421 21.36 99.2595 21.0133 99.0568 20.576C98.8541 20.128 98.7528 19.616 98.7528 19.04V10.304C98.7528 10.0693 98.8275 9.87733 98.9768 9.728C99.1261 9.57867 99.3181 9.504 99.5528 9.504C99.7875 9.504 99.9795 9.57867 100.129 9.728C100.278 9.87733 100.353 10.0693 100.353 10.304V19.04C100.353 19.4347 100.427 19.76 100.577 20.016C100.726 20.272 100.918 20.4 101.153 20.4H101.553C101.766 20.4 101.937 20.4747 102.065 20.624C102.203 20.7733 102.273 20.9653 102.273 21.2C102.273 21.4347 102.171 21.6267 101.969 21.776C101.766 21.9253 101.505 22 101.185 22H101.153ZM107.497 22.064C106.612 22.064 105.823 21.8773 105.129 21.504C104.447 21.12 103.908 20.5973 103.513 19.936C103.129 19.264 102.937 18.496 102.937 17.632C102.937 16.7573 103.119 15.9893 103.481 15.328C103.855 14.656 104.367 14.1333 105.017 13.76C105.668 13.376 106.415 13.184 107.257 13.184C108.089 13.184 108.804 13.3707 109.401 13.744C109.999 14.1067 110.452 14.6133 110.761 15.264C111.081 15.904 111.241 16.6453 111.241 17.488C111.241 17.6907 111.172 17.8613 111.033 18C110.895 18.128 110.719 18.192 110.505 18.192H104.425C104.543 18.928 104.879 19.5307 105.433 20C105.999 20.4587 106.687 20.688 107.497 20.688C107.828 20.688 108.164 20.6293 108.505 20.512C108.857 20.384 109.14 20.24 109.353 20.08C109.513 19.9627 109.684 19.904 109.865 19.904C110.057 19.8933 110.223 19.9467 110.361 20.064C110.543 20.224 110.639 20.4 110.649 20.592C110.66 20.784 110.575 20.9493 110.393 21.088C110.031 21.376 109.577 21.6107 109.033 21.792C108.5 21.9733 107.988 22.064 107.497 22.064ZM107.257 14.56C106.468 14.56 105.833 14.7787 105.353 15.216C104.873 15.6533 104.569 16.2187 104.441 16.912H109.769C109.673 16.2293 109.412 15.6693 108.985 15.232C108.559 14.784 107.983 14.56 107.257 14.56ZM118.826 25.744C118.592 25.744 118.394 25.664 118.234 25.504C118.085 25.3547 118.01 25.1627 118.01 24.928V17.632C118.021 16.7893 118.218 16.032 118.602 15.36C118.986 14.688 119.509 14.16 120.17 13.776C120.832 13.3813 121.578 13.184 122.41 13.184C123.253 13.184 124.005 13.3813 124.666 13.776C125.328 14.16 125.85 14.688 126.234 15.36C126.629 16.032 126.826 16.7893 126.826 17.632C126.826 18.4747 126.645 19.232 126.282 19.904C125.93 20.5653 125.445 21.0933 124.826 21.488C124.208 21.872 123.509 22.064 122.73 22.064C122.101 22.064 121.52 21.936 120.986 21.68C120.464 21.4133 120.016 21.056 119.642 20.608V24.928C119.642 25.1627 119.568 25.3547 119.418 25.504C119.269 25.664 119.072 25.744 118.826 25.744ZM122.41 20.624C122.954 20.624 123.44 20.496 123.866 20.24C124.293 19.9733 124.629 19.616 124.874 19.168C125.13 18.7093 125.258 18.1973 125.258 17.632C125.258 17.056 125.13 16.544 124.874 16.096C124.629 15.6373 124.293 15.28 123.866 15.024C123.44 14.7573 122.954 14.624 122.41 14.624C121.877 14.624 121.392 14.7573 120.954 15.024C120.528 15.28 120.192 15.6373 119.946 16.096C119.701 16.544 119.578 17.056 119.578 17.632C119.578 18.1973 119.701 18.7093 119.946 19.168C120.192 19.616 120.528 19.9733 120.954 20.24C121.392 20.496 121.877 20.624 122.41 20.624ZM131.34 22C130.871 22 130.455 21.872 130.092 21.616C129.73 21.36 129.447 21.0133 129.244 20.576C129.042 20.128 128.94 19.616 128.94 19.04V10.304C128.94 10.0693 129.015 9.87733 129.164 9.728C129.314 9.57867 129.506 9.504 129.74 9.504C129.975 9.504 130.167 9.57867 130.316 9.728C130.466 9.87733 130.54 10.0693 130.54 10.304V19.04C130.54 19.4347 130.615 19.76 130.764 20.016C130.914 20.272 131.106 20.4 131.34 20.4H131.74C131.954 20.4 132.124 20.4747 132.252 20.624C132.391 20.7733 132.46 20.9653 132.46 21.2C132.46 21.4347 132.359 21.6267 132.156 21.776C131.954 21.9253 131.692 22 131.372 22H131.34ZM137.221 22.064C136.442 22.064 135.743 21.872 135.125 21.488C134.506 21.0933 134.015 20.5653 133.653 19.904C133.301 19.232 133.125 18.4747 133.125 17.632C133.125 16.7893 133.317 16.032 133.701 15.36C134.095 14.688 134.623 14.16 135.285 13.776C135.957 13.3813 136.709 13.184 137.541 13.184C138.373 13.184 139.119 13.3813 139.781 13.776C140.442 14.16 140.965 14.688 141.349 15.36C141.743 16.032 141.941 16.7893 141.941 17.632V21.2C141.941 21.4347 141.861 21.632 141.701 21.792C141.551 21.9413 141.359 22.016 141.125 22.016C140.89 22.016 140.693 21.9413 140.533 21.792C140.383 21.632 140.309 21.4347 140.309 21.2V20.608C139.935 21.056 139.482 21.4133 138.949 21.68C138.426 21.936 137.85 22.064 137.221 22.064ZM137.541 20.624C138.085 20.624 138.57 20.496 138.997 20.24C139.423 19.9733 139.759 19.616 140.005 19.168C140.25 18.7093 140.373 18.1973 140.373 17.632C140.373 17.056 140.25 16.544 140.005 16.096C139.759 15.6373 139.423 15.28 138.997 15.024C138.57 14.7573 138.085 14.624 137.541 14.624C137.007 14.624 136.522 14.7573 136.085 15.024C135.658 15.28 135.317 15.6373 135.061 16.096C134.815 16.544 134.693 17.056 134.693 17.632C134.693 18.1973 134.815 18.7093 135.061 19.168C135.317 19.616 135.658 19.9733 136.085 20.24C136.522 20.496 137.007 20.624 137.541 20.624ZM145.938 25.84C145.831 25.84 145.703 25.808 145.554 25.744C145.084 25.5307 144.956 25.1947 145.17 24.736L146.77 21.136L143.17 14.304C143.063 14.1013 143.047 13.9093 143.122 13.728C143.207 13.536 143.351 13.3973 143.554 13.312C143.756 13.2267 143.948 13.2213 144.13 13.296C144.311 13.36 144.45 13.4933 144.546 13.696L147.474 19.52L150.05 13.712C150.263 13.264 150.599 13.136 151.058 13.328C151.538 13.5307 151.671 13.8667 151.458 14.336L146.562 25.344C146.434 25.6747 146.226 25.84 145.938 25.84Z" fill="white"/>
<mask id="mask0" mask-type="alpha" maskUnits="userSpaceOnUse" x="24" y="6" width="20" height="23">
<path fill-rule="evenodd" clip-rule="evenodd" d="M39.0179 14.1811L34.2392 11.4354C34.2392 11.4354 25.5335 6.43249 25.0217 6.13844C24.5099 5.84438 24 6.02255 24 6.63705V28.2172C24 28.6779 24.3644 28.8765 24.8091 28.6212C25.2535 28.3655 34.2392 23.2022 34.2392 23.2022L39.0177 20.4567C39.0177 20.4567 43.0722 18.1271 43.6111 17.8176C44.1501 17.5077 44.0983 17.0829 43.6435 16.8391C43.1889 16.5952 39.0179 14.1811 39.0179 14.1811V14.1811Z" fill="white"/>
</mask>
<g mask="url(#mask0)">
<path d="M24 5.63672V29.001L35.8382 17.319L24 5.63672Z" fill="url(#paint0_linear)"/>
</g>
<mask id="mask1" mask-type="alpha" maskUnits="userSpaceOnUse" x="24" y="6" width="20" height="23">
<path fill-rule="evenodd" clip-rule="evenodd" d="M39.0179 14.1811L34.2392 11.4354C34.2392 11.4354 25.5335 6.43249 25.0217 6.13844C24.5099 5.84438 24 6.02255 24 6.63705V28.2172C24 28.6779 24.3644 28.8765 24.8091 28.6212C25.2535 28.3655 34.2392 23.2022 34.2392 23.2022L39.0177 20.4567C39.0177 20.4567 43.0722 18.1271 43.6111 17.8176C44.1501 17.5077 44.0983 17.0829 43.6435 16.8391C43.1889 16.5952 39.0179 14.1811 39.0179 14.1811V14.1811Z" fill="white"/>
</mask>
<g mask="url(#mask1)">
<path d="M39.0177 14.1811L34.239 11.4354L24 5.55176V5.63672L35.8382 17.319L39.0177 14.1811Z" fill="url(#paint1_linear)"/>
</g>
<mask id="mask2" mask-type="alpha" maskUnits="userSpaceOnUse" x="24" y="6" width="20" height="23">
<path fill-rule="evenodd" clip-rule="evenodd" d="M39.0179 14.1811L34.2392 11.4354C34.2392 11.4354 25.5335 6.43249 25.0217 6.13844C24.5099 5.84438 24 6.02255 24 6.63705V28.2172C24 28.6779 24.3644 28.8765 24.8091 28.6212C25.2535 28.3655 34.2392 23.2022 34.2392 23.2022L39.0177 20.4567C39.0177 20.4567 43.0722 18.1271 43.6111 17.8176C44.1501 17.5077 44.0983 17.0829 43.6435 16.8391C43.1889 16.5952 39.0179 14.1811 39.0179 14.1811V14.1811Z" fill="white"/>
</mask>
<g mask="url(#mask2)">
<path d="M24 29.0014V29.0863L34.239 23.2025L39.0175 20.4568L35.8382 17.3193L24 29.0014Z" fill="url(#paint2_linear)"/>
</g>
<mask id="mask3" mask-type="alpha" maskUnits="userSpaceOnUse" x="24" y="6" width="20" height="23">
<path fill-rule="evenodd" clip-rule="evenodd" d="M39.0179 14.1811L34.2392 11.4354C34.2392 11.4354 25.5335 6.43249 25.0217 6.13844C24.5099 5.84438 24 6.02255 24 6.63705V28.2172C24 28.6779 24.3644 28.8765 24.8091 28.6212C25.2535 28.3655 34.2392 23.2022 34.2392 23.2022L39.0177 20.4567C39.0177 20.4567 43.0722 18.1271 43.6111 17.8176C44.1501 17.5077 44.0983 17.0829 43.6435 16.8391C43.1889 16.5952 39.0179 14.1811 39.0179 14.1811V14.1811Z" fill="white"/>
</mask>
<g mask="url(#mask3)">
<path d="M39.0174 14.1812L35.8379 17.3191L39.0172 20.4566L44.4784 17.3189L39.0174 14.1812Z" fill="url(#paint3_linear)"/>
</g>
<defs>
<filter id="filter0_d" x="0" y="0" width="172" height="42" filterUnits="userSpaceOnUse" color-interpolation-filters="sRGB">
<feFlood flood-opacity="0" result="BackgroundImageFix"/>
<feColorMatrix in="SourceAlpha" type="matrix" values="0 0 0 0 0 0 0 0 0 0 0 0 0 0 0 0 0 0 127 0"/>
<feOffset dy="4"/>
<feGaussianBlur stdDeviation="2"/>
<feColorMatrix type="matrix" values="0 0 0 0 0 0 0 0 0 0 0 0 0 0 0 0 0 0 0.25 0"/>
<feBlend mode="normal" in2="BackgroundImageFix" result="effect1_dropShadow"/>
<feBlend mode="normal" in="SourceGraphic" in2="effect1_dropShadow" result="shape"/>
</filter>
<linearGradient id="paint0_linear" x1="24" y1="5.63675" x2="24" y2="29.001" gradientUnits="userSpaceOnUse">
<stop stop-color="#257CB0"/>
<stop offset="0.286" stop-color="#4A93B5"/>
<stop offset="0.767" stop-color="#78BCBB"/>
<stop offset="1" stop-color="#89CFBD"/>
</linearGradient>
<linearGradient id="paint1_linear" x1="24.0002" y1="17.3188" x2="39.0179" y2="17.3188" gradientUnits="userSpaceOnUse">
<stop stop-color="#52C1AD"/>
<stop offset="1" stop-color="#DEE89A"/>
</linearGradient>
<linearGradient id="paint2_linear" x1="24" y1="17.3194" x2="24" y2="29.0864" gradientUnits="userSpaceOnUse">
<stop stop-color="#EC413D"/>
<stop offset="0.167" stop-color="#DA4452"/>
<stop offset="0.575" stop-color="#B0487A"/>
<stop offset="0.862" stop-color="#954A92"/>
<stop offset="1" stop-color="#8A4A9D"/>
</linearGradient>
<linearGradient id="paint3_linear" x1="35.8381" y1="14.1812" x2="35.8381" y2="20.4564" gradientUnits="userSpaceOnUse">
<stop stop-color="#F58879"/>
<stop offset="0.119" stop-color="#F69079"/>
<stop offset="0.713" stop-color="#FCB877"/>
<stop offset="1" stop-color="#FEC874"/>
</linearGradient>
</defs>
</svg>
