<svg width="25" height="25" viewBox="0 0 25 25" fill="none" xmlns="http://www.w3.org/2000/svg">
<path fill-rule="evenodd" clip-rule="evenodd" d="M12.5 0C5.59644 0 0 5.59644 0 12.5C0 19.4036 5.59644 25 12.5 25C19.4036 25 25 19.4036 25 12.5C25 5.59644 19.4036 0 12.5 0ZM9.75173 5.87352C10.4628 5.84116 10.6901 5.83324 12.5006 5.83324H12.4986C14.3097 5.83324 14.5361 5.84116 15.2472 5.87352C15.9569 5.90602 16.4417 6.01838 16.8667 6.18324C17.3056 6.35338 17.6764 6.58116 18.0472 6.952C18.4181 7.32256 18.6459 7.69451 18.8167 8.13299C18.9806 8.55688 19.0931 9.04133 19.1264 9.75106C19.1584 10.4622 19.1667 10.6894 19.1667 12.5C19.1667 14.3106 19.1584 14.5372 19.1264 15.2483C19.0931 15.9578 18.9806 16.4424 18.8167 16.8664C18.6459 17.3047 18.4181 17.6767 18.0472 18.0473C17.6768 18.4181 17.3054 18.6464 16.8671 18.8167C16.4429 18.9816 15.9579 19.0939 15.2482 19.1264C14.5371 19.1588 14.3105 19.1667 12.4998 19.1667C10.6894 19.1667 10.4623 19.1588 9.75118 19.1264C9.04158 19.0939 8.557 18.9816 8.13283 18.8167C7.69463 18.6464 7.32268 18.4181 6.95226 18.0473C6.58156 17.6767 6.35378 17.3047 6.18336 16.8663C6.01864 16.4424 5.90627 15.9579 5.87364 15.2482C5.84141 14.5371 5.83336 14.3106 5.83336 12.5C5.83336 10.6894 5.84169 10.462 5.8735 9.75092C5.90544 9.04147 6.01794 8.55688 6.18322 8.13285C6.35406 7.69451 6.58184 7.32256 6.95267 6.952C7.32323 6.5813 7.69518 6.35352 8.13366 6.18324C8.55755 6.01838 9.042 5.90602 9.75173 5.87352Z" fill="white"/>
<path fill-rule="evenodd" clip-rule="evenodd" d="M11.9024 7.03463C12.0186 7.03444 12.1435 7.0345 12.2783 7.03456L12.5005 7.03463C14.2805 7.03463 14.4915 7.04101 15.1944 7.07296C15.8444 7.10268 16.1972 7.21129 16.4322 7.30255C16.7433 7.42338 16.9651 7.56783 17.1983 7.80116C17.4317 8.0345 17.5761 8.25672 17.6972 8.56784C17.7885 8.80256 17.8972 9.15534 17.9268 9.80535C17.9587 10.5081 17.9657 10.7192 17.9657 12.4984C17.9657 14.2776 17.9587 14.4887 17.9268 15.1915C17.8971 15.8415 17.7885 16.1943 17.6972 16.429C17.5764 16.7401 17.4317 16.9617 17.1983 17.1949C16.965 17.4282 16.7435 17.5727 16.4322 17.6935C16.1975 17.7852 15.8444 17.8935 15.1944 17.9232C14.4916 17.9552 14.2805 17.9621 12.5005 17.9621C10.7203 17.9621 10.5094 17.9552 9.80657 17.9232C9.15657 17.8932 8.80379 17.7846 8.56864 17.6933C8.25753 17.5725 8.03531 17.4281 7.80197 17.1947C7.56863 16.9614 7.42419 16.7397 7.30308 16.4285C7.21182 16.1937 7.10307 15.841 7.07349 15.191C7.04155 14.4882 7.03516 14.2771 7.03516 12.4968C7.03516 10.7165 7.04155 10.5065 7.07349 9.80368C7.10321 9.15368 7.21182 8.80089 7.30308 8.56589C7.42391 8.25478 7.56863 8.03255 7.80197 7.79922C8.03531 7.56588 8.25753 7.42144 8.56864 7.30032C8.80365 7.20866 9.15657 7.10032 9.80657 7.07046C10.4216 7.04268 10.6599 7.03435 11.9024 7.03296V7.03463ZM16.0591 8.14163C15.6175 8.14163 15.2591 8.49955 15.2591 8.94136C15.2591 9.38303 15.6175 9.74136 16.0591 9.74136C16.5008 9.74136 16.8591 9.38303 16.8591 8.94136C16.8591 8.49968 16.5008 8.14135 16.0591 8.14135V8.14163ZM9.07684 12.5001C9.07684 10.6095 10.6097 9.07657 12.5004 9.0765C14.3911 9.0765 15.9236 10.6094 15.9236 12.5001C15.9236 14.3909 14.3912 15.9231 12.5005 15.9231C10.6098 15.9231 9.07684 14.3909 9.07684 12.5001Z" fill="white"/>
<path d="M12.5015 10.2778C13.7288 10.2778 14.7238 11.2727 14.7238 12.5001C14.7238 13.7273 13.7288 14.7223 12.5015 14.7223C11.2742 14.7223 10.2793 13.7273 10.2793 12.5001C10.2793 11.2727 11.2742 10.2778 12.5015 10.2778Z" fill="white"/>
</svg>
