<svg width="185" height="38" viewBox="0 0 185 38" fill="none" xmlns="http://www.w3.org/2000/svg">
<path d="M111.064 28.3753C109.656 28.3753 108.368 28.1433 107.2 27.6793C106.032 27.1993 105.024 26.5353 104.176 25.6873C103.344 24.8233 102.696 23.8073 102.232 22.6393C101.768 21.4553 101.536 20.1593 101.536 18.7513C101.536 17.3433 101.768 16.0553 102.232 14.8873C102.696 13.7193 103.344 12.7113 104.176 11.8633C105.024 10.9993 106.032 10.3353 107.2 9.87125C108.368 9.39125 109.656 9.15125 111.064 9.15125C112.472 9.15125 113.752 9.39125 114.904 9.87125C116.072 10.3353 117.08 10.9993 117.928 11.8633C118.776 12.7113 119.432 13.7193 119.896 14.8873C120.36 16.0553 120.592 17.3433 120.592 18.7513C120.592 20.1593 120.36 21.4553 119.896 22.6393C119.432 23.8073 118.776 24.8233 117.928 25.6873C117.08 26.5353 116.072 27.1993 114.904 27.6793C113.752 28.1433 112.472 28.3753 111.064 28.3753ZM111.064 26.1193C112.456 26.1193 113.688 25.7993 114.76 25.1593C115.832 24.5033 116.672 23.6233 117.28 22.5193C117.888 21.3993 118.192 20.1433 118.192 18.7513C118.192 17.3593 117.888 16.1113 117.28 15.0073C116.672 13.8873 115.832 13.0073 114.76 12.3673C113.688 11.7273 112.456 11.4073 111.064 11.4073C109.672 11.4073 108.44 11.7273 107.368 12.3673C106.296 13.0073 105.456 13.8873 104.848 15.0073C104.24 16.1113 103.936 17.3593 103.936 18.7513C103.936 20.1433 104.24 21.3993 104.848 22.5193C105.456 23.6233 106.296 24.5033 107.368 25.1593C108.44 25.7993 109.672 26.1193 111.064 26.1193ZM123.469 28.1353C123.101 28.1353 122.821 28.0233 122.629 27.7993C122.437 27.5593 122.341 27.2873 122.341 26.9833C122.341 26.6633 122.437 26.3753 122.629 26.1193L128.221 18.6793L122.941 11.3593C122.749 11.1033 122.669 10.8233 122.701 10.5193C122.733 10.2153 122.845 9.95125 123.037 9.72725C123.245 9.50325 123.517 9.39125 123.853 9.39125C124.269 9.39125 124.565 9.51125 124.741 9.75125L129.901 16.9033L135.277 9.75125C135.501 9.51125 135.797 9.39125 136.165 9.39125C136.501 9.39125 136.765 9.49525 136.957 9.70325C137.149 9.91125 137.253 10.1673 137.269 10.4713C137.285 10.7753 137.197 11.0713 137.005 11.3593L131.533 18.6553L136.909 26.1193C137.101 26.3753 137.189 26.6633 137.173 26.9833C137.157 27.3033 137.045 27.5753 136.837 27.7993C136.645 28.0233 136.373 28.1353 136.021 28.1353C135.621 28.1353 135.301 27.9833 135.061 27.6793L129.853 20.4553L124.333 27.7753C124.093 28.0153 123.805 28.1353 123.469 28.1353ZM141.968 28.1353C141.616 28.1353 141.32 28.0153 141.08 27.7753C140.84 27.5353 140.72 27.2393 140.72 26.8873V10.6393C140.72 10.2713 140.84 9.97525 141.08 9.75125C141.32 9.51125 141.616 9.39125 141.968 9.39125C142.336 9.39125 142.632 9.51125 142.856 9.75125C143.096 9.97525 143.216 10.2713 143.216 10.6393V26.8873C143.216 27.2393 143.096 27.5353 142.856 27.7753C142.632 28.0153 142.336 28.1353 141.968 28.1353ZM156.673 28.3753C155.265 28.3753 153.977 28.1433 152.809 27.6793C151.641 27.1993 150.633 26.5353 149.785 25.6873C148.953 24.8233 148.305 23.8073 147.841 22.6393C147.377 21.4553 147.145 20.1593 147.145 18.7513C147.145 17.3433 147.377 16.0553 147.841 14.8873C148.305 13.7193 148.953 12.7113 149.785 11.8633C150.633 10.9993 151.641 10.3353 152.809 9.87125C153.977 9.39125 155.265 9.15125 156.673 9.15125C158.081 9.15125 159.361 9.39125 160.513 9.87125C161.681 10.3353 162.689 10.9993 163.537 11.8633C164.385 12.7113 165.041 13.7193 165.505 14.8873C165.969 16.0553 166.201 17.3433 166.201 18.7513C166.201 20.1593 165.969 21.4553 165.505 22.6393C165.041 23.8073 164.385 24.8233 163.537 25.6873C162.689 26.5353 161.681 27.1993 160.513 27.6793C159.361 28.1433 158.081 28.3753 156.673 28.3753ZM156.673 26.1193C158.065 26.1193 159.297 25.7993 160.369 25.1593C161.441 24.5033 162.281 23.6233 162.889 22.5193C163.497 21.3993 163.801 20.1433 163.801 18.7513C163.801 17.3593 163.497 16.1113 162.889 15.0073C162.281 13.8873 161.441 13.0073 160.369 12.3673C159.297 11.7273 158.065 11.4073 156.673 11.4073C155.281 11.4073 154.049 11.7273 152.977 12.3673C151.905 13.0073 151.065 13.8873 150.457 15.0073C149.849 16.1113 149.545 17.3593 149.545 18.7513C149.545 20.1433 149.849 21.3993 150.457 22.5193C151.065 23.6233 151.905 24.5033 152.977 25.1593C154.049 25.7993 155.281 26.1193 156.673 26.1193ZM176.063 28.3753C175.039 28.3753 174.063 28.2153 173.135 27.8953C172.207 27.5753 171.399 27.1273 170.711 26.5513C170.023 25.9753 169.519 25.3113 169.199 24.5593C169.039 24.2233 169.039 23.9113 169.199 23.6233C169.375 23.3353 169.663 23.1513 170.063 23.0713C170.351 23.0073 170.631 23.0553 170.903 23.2153C171.191 23.3593 171.407 23.5833 171.551 23.8873C171.743 24.2873 172.055 24.6553 172.487 24.9913C172.935 25.3273 173.471 25.5993 174.095 25.8073C174.719 26.0153 175.375 26.1193 176.063 26.1193C176.831 26.1193 177.535 25.9993 178.175 25.7593C178.831 25.5193 179.359 25.1753 179.759 24.7273C180.159 24.2633 180.359 23.6953 180.359 23.0233C180.359 22.1753 180.023 21.4153 179.351 20.7433C178.695 20.0713 177.607 19.6553 176.087 19.4953C174.103 19.3033 172.543 18.7193 171.407 17.7433C170.271 16.7673 169.703 15.5593 169.703 14.1193C169.703 13.0633 169.999 12.1673 170.591 11.4313C171.183 10.6953 171.983 10.1353 172.991 9.75125C174.015 9.36725 175.151 9.17525 176.399 9.17525C177.855 9.17525 179.047 9.47125 179.975 10.0633C180.903 10.6553 181.671 11.4393 182.279 12.4153C182.503 12.7673 182.591 13.1033 182.543 13.4233C182.511 13.7273 182.359 13.9673 182.087 14.1433C181.783 14.3353 181.455 14.3753 181.103 14.2633C180.751 14.1513 180.487 13.9433 180.311 13.6393C179.911 12.9513 179.391 12.4153 178.751 12.0313C178.127 11.6473 177.319 11.4473 176.327 11.4313C175.143 11.4153 174.151 11.6393 173.351 12.1033C172.551 12.5513 172.151 13.2473 172.151 14.1913C172.151 14.6713 172.271 15.1353 172.511 15.5833C172.767 16.0153 173.223 16.3913 173.879 16.7113C174.551 17.0313 175.511 17.2553 176.759 17.3833C178.663 17.5753 180.143 18.1593 181.199 19.1353C182.271 20.0953 182.807 21.3673 182.807 22.9513C182.807 23.8633 182.615 24.6553 182.231 25.3273C181.863 25.9993 181.359 26.5673 180.719 27.0313C180.095 27.4793 179.375 27.8153 178.559 28.0393C177.759 28.2633 176.927 28.3753 176.063 28.3753Z" fill="white"/>
<path d="M13.0099 9.64589C26.4751 -4.40702 58.747 -0.873103 65.7765 6.19473C74.3272 14.7919 67.7181 27.1077 64.8564 29.069C61.1697 31.5958 47.7005 38 35.1477 38C22.5949 38 23.097 32.4467 14.0591 30.9321C3.0956 29.0949 5.74982 17.2229 13.0099 9.64589Z" fill="white"/>
<path d="M62.4977 2.72988C62.3674 1.6282 63.151 0.601126 64.248 0.435854C65.345 0.270581 66.3399 1.02969 66.4702 2.13138L67.4216 10.1733C67.5519 11.275 66.7683 12.3021 65.6713 12.4673C64.5743 12.6326 63.5793 11.8735 63.449 10.7718L62.4977 2.72988Z" fill="white"/>
<path d="M16.7741 13.0485C12.3017 17.7402 15.2631 23.8101 18.7061 26.4083C28.2042 33.5759 53.9974 31.1718 60.5844 26.8414C67.2962 22.4289 67.2602 11.8159 60.5844 6.88523C53.9085 1.9546 23.4403 6.05545 16.7741 13.0485Z" fill="#98DDB5"/>
<path d="M1.34133 10.1437C0.600533 8.96878 0.930616 7.38256 2.07859 6.60073C3.22656 5.8189 4.75771 6.13752 5.49851 7.31239L12.0811 17.7521C12.8219 18.927 12.4918 20.5132 11.3438 21.2951C10.1959 22.0769 8.66471 21.7583 7.92391 20.5834L1.34133 10.1437Z" fill="white"/>
<path d="M31.4752 17.3012C31.4752 19.5318 29.6768 21.34 27.4583 21.34C25.2398 21.34 23.4414 19.5318 23.4414 17.3012C23.4414 15.0707 25.2398 13.2625 27.4583 13.2625C29.6768 13.2625 31.4752 15.0707 31.4752 17.3012Z" fill="white"/>
<path d="M58.0159 16.7964C58.0159 18.7481 56.4423 20.3303 54.5011 20.3303C52.5599 20.3303 50.9863 18.7481 50.9863 16.7964C50.9863 14.8446 52.5599 13.2625 54.5011 13.2625C56.4423 13.2625 58.0159 14.8446 58.0159 16.7964Z" fill="white"/>
</svg>
