<svg width="185" height="39" viewBox="0 0 185 39" fill="none" xmlns="http://www.w3.org/2000/svg">
<path d="M111.064 29.24C109.656 29.24 108.368 29.008 107.2 28.544C106.032 28.064 105.024 27.4 104.176 26.552C103.344 25.688 102.696 24.672 102.232 23.504C101.768 22.32 101.536 21.024 101.536 19.616C101.536 18.208 101.768 16.92 102.232 15.752C102.696 14.584 103.344 13.576 104.176 12.728C105.024 11.864 106.032 11.2 107.2 10.736C108.368 10.256 109.656 10.016 111.064 10.016C112.472 10.016 113.752 10.256 114.904 10.736C116.072 11.2 117.08 11.864 117.928 12.728C118.776 13.576 119.432 14.584 119.896 15.752C120.36 16.92 120.592 18.208 120.592 19.616C120.592 21.024 120.36 22.32 119.896 23.504C119.432 24.672 118.776 25.688 117.928 26.552C117.08 27.4 116.072 28.064 114.904 28.544C113.752 29.008 112.472 29.24 111.064 29.24ZM111.064 26.984C112.456 26.984 113.688 26.664 114.76 26.024C115.832 25.368 116.672 24.488 117.28 23.384C117.888 22.264 118.192 21.008 118.192 19.616C118.192 18.224 117.888 16.976 117.28 15.872C116.672 14.752 115.832 13.872 114.76 13.232C113.688 12.592 112.456 12.272 111.064 12.272C109.672 12.272 108.44 12.592 107.368 13.232C106.296 13.872 105.456 14.752 104.848 15.872C104.24 16.976 103.936 18.224 103.936 19.616C103.936 21.008 104.24 22.264 104.848 23.384C105.456 24.488 106.296 25.368 107.368 26.024C108.44 26.664 109.672 26.984 111.064 26.984ZM123.469 29C123.101 29 122.821 28.888 122.629 28.664C122.437 28.424 122.341 28.152 122.341 27.848C122.341 27.528 122.437 27.24 122.629 26.984L128.221 19.544L122.941 12.224C122.749 11.968 122.669 11.688 122.701 11.384C122.733 11.08 122.845 10.816 123.037 10.592C123.245 10.368 123.517 10.256 123.853 10.256C124.269 10.256 124.565 10.376 124.741 10.616L129.901 17.768L135.277 10.616C135.501 10.376 135.797 10.256 136.165 10.256C136.501 10.256 136.765 10.36 136.957 10.568C137.149 10.776 137.253 11.032 137.269 11.336C137.285 11.64 137.197 11.936 137.005 12.224L131.533 19.52L136.909 26.984C137.101 27.24 137.189 27.528 137.173 27.848C137.157 28.168 137.045 28.44 136.837 28.664C136.645 28.888 136.373 29 136.021 29C135.621 29 135.301 28.848 135.061 28.544L129.853 21.32L124.333 28.64C124.093 28.88 123.805 29 123.469 29ZM141.968 29C141.616 29 141.32 28.88 141.08 28.64C140.84 28.4 140.72 28.104 140.72 27.752V11.504C140.72 11.136 140.84 10.84 141.08 10.616C141.32 10.376 141.616 10.256 141.968 10.256C142.336 10.256 142.632 10.376 142.856 10.616C143.096 10.84 143.216 11.136 143.216 11.504V27.752C143.216 28.104 143.096 28.4 142.856 28.64C142.632 28.88 142.336 29 141.968 29ZM156.673 29.24C155.265 29.24 153.977 29.008 152.809 28.544C151.641 28.064 150.633 27.4 149.785 26.552C148.953 25.688 148.305 24.672 147.841 23.504C147.377 22.32 147.145 21.024 147.145 19.616C147.145 18.208 147.377 16.92 147.841 15.752C148.305 14.584 148.953 13.576 149.785 12.728C150.633 11.864 151.641 11.2 152.809 10.736C153.977 10.256 155.265 10.016 156.673 10.016C158.081 10.016 159.361 10.256 160.513 10.736C161.681 11.2 162.689 11.864 163.537 12.728C164.385 13.576 165.041 14.584 165.505 15.752C165.969 16.92 166.201 18.208 166.201 19.616C166.201 21.024 165.969 22.32 165.505 23.504C165.041 24.672 164.385 25.688 163.537 26.552C162.689 27.4 161.681 28.064 160.513 28.544C159.361 29.008 158.081 29.24 156.673 29.24ZM156.673 26.984C158.065 26.984 159.297 26.664 160.369 26.024C161.441 25.368 162.281 24.488 162.889 23.384C163.497 22.264 163.801 21.008 163.801 19.616C163.801 18.224 163.497 16.976 162.889 15.872C162.281 14.752 161.441 13.872 160.369 13.232C159.297 12.592 158.065 12.272 156.673 12.272C155.281 12.272 154.049 12.592 152.977 13.232C151.905 13.872 151.065 14.752 150.457 15.872C149.849 16.976 149.545 18.224 149.545 19.616C149.545 21.008 149.849 22.264 150.457 23.384C151.065 24.488 151.905 25.368 152.977 26.024C154.049 26.664 155.281 26.984 156.673 26.984ZM176.063 29.24C175.039 29.24 174.063 29.08 173.135 28.76C172.207 28.44 171.399 27.992 170.711 27.416C170.023 26.84 169.519 26.176 169.199 25.424C169.039 25.088 169.039 24.776 169.199 24.488C169.375 24.2 169.663 24.016 170.063 23.936C170.351 23.872 170.631 23.92 170.903 24.08C171.191 24.224 171.407 24.448 171.551 24.752C171.743 25.152 172.055 25.52 172.487 25.856C172.935 26.192 173.471 26.464 174.095 26.672C174.719 26.88 175.375 26.984 176.063 26.984C176.831 26.984 177.535 26.864 178.175 26.624C178.831 26.384 179.359 26.04 179.759 25.592C180.159 25.128 180.359 24.56 180.359 23.888C180.359 23.04 180.023 22.28 179.351 21.608C178.695 20.936 177.607 20.52 176.087 20.36C174.103 20.168 172.543 19.584 171.407 18.608C170.271 17.632 169.703 16.424 169.703 14.984C169.703 13.928 169.999 13.032 170.591 12.296C171.183 11.56 171.983 11 172.991 10.616C174.015 10.232 175.151 10.04 176.399 10.04C177.855 10.04 179.047 10.336 179.975 10.928C180.903 11.52 181.671 12.304 182.279 13.28C182.503 13.632 182.591 13.968 182.543 14.288C182.511 14.592 182.359 14.832 182.087 15.008C181.783 15.2 181.455 15.24 181.103 15.128C180.751 15.016 180.487 14.808 180.311 14.504C179.911 13.816 179.391 13.28 178.751 12.896C178.127 12.512 177.319 12.312 176.327 12.296C175.143 12.28 174.151 12.504 173.351 12.968C172.551 13.416 172.151 14.112 172.151 15.056C172.151 15.536 172.271 16 172.511 16.448C172.767 16.88 173.223 17.256 173.879 17.576C174.551 17.896 175.511 18.12 176.759 18.248C178.663 18.44 180.143 19.024 181.199 20C182.271 20.96 182.807 22.232 182.807 23.816C182.807 24.728 182.615 25.52 182.231 26.192C181.863 26.864 181.359 27.432 180.719 27.896C180.095 28.344 179.375 28.68 178.559 28.904C177.759 29.128 176.927 29.24 176.063 29.24Z" fill="#98DDB5"/>
<path d="M13.0099 10.5106C26.4751 -3.54228 58.747 -0.00835681 65.7765 7.05948C74.3272 15.6567 67.7181 27.9724 64.8564 29.9337C61.1697 32.4605 47.7005 38.8647 35.1477 38.8647C22.5949 38.8647 23.097 33.3114 14.0591 31.7969C3.0956 29.9597 5.74982 18.0876 13.0099 10.5106Z" fill="#98DDB5"/>
<path d="M62.4977 3.59438C62.3674 2.4927 63.151 1.46563 64.248 1.30036C65.345 1.13508 66.3399 1.8942 66.4702 2.99588L67.4216 11.0378C67.5519 12.1395 66.7683 13.1666 65.6713 13.3318C64.5743 13.4971 63.5793 12.738 63.449 11.6363L62.4977 3.59438Z" fill="#98DDB5"/>
<path d="M16.7741 13.9135C12.3017 18.6052 15.2631 24.6751 18.7061 27.2733C28.2042 34.4409 53.9974 32.0368 60.5844 27.7064C67.2962 23.2939 67.2602 12.6808 60.5844 7.75022C53.9085 2.81959 23.4403 6.92044 16.7741 13.9135Z" fill="white"/>
<path d="M1.34133 11.0082C0.600533 9.83328 0.930616 8.24706 2.07859 7.46523C3.22656 6.6834 4.75771 7.00202 5.49851 8.17689L12.0811 18.6166C12.8219 19.7915 12.4918 21.3777 11.3438 22.1596C10.1959 22.9414 8.66471 22.6228 7.92391 21.4479L1.34133 11.0082Z" fill="#98DDB5"/>
<path d="M31.4752 18.1662C31.4752 20.3968 29.6768 22.205 27.4583 22.205C25.2398 22.205 23.4414 20.3968 23.4414 18.1662C23.4414 15.9357 25.2398 14.1274 27.4583 14.1274C29.6768 14.1274 31.4752 15.9357 31.4752 18.1662Z" fill="#98DDB5"/>
<path d="M58.0159 17.6614C58.0159 19.6131 56.4423 21.1953 54.5011 21.1953C52.5599 21.1953 50.9863 19.6131 50.9863 17.6614C50.9863 15.7096 52.5599 14.1274 54.5011 14.1274C56.4423 14.1274 58.0159 15.7096 58.0159 17.6614Z" fill="#98DDB5"/>
</svg>
