<svg width="25" height="25" viewBox="0 0 25 25" fill="none" xmlns="http://www.w3.org/2000/svg">
<path fill-rule="evenodd" clip-rule="evenodd" d="M12.5 0C5.59644 0 0 5.59644 0 12.5C0 19.4036 5.59644 25 12.5 25C19.4036 25 25 19.4036 25 12.5C25 5.59644 19.4036 0 12.5 0ZM12.1519 10.5925L12.1256 10.16C12.0469 9.03893 12.7377 8.01498 13.8306 7.61776C14.2328 7.47653 14.9148 7.45887 15.3607 7.58245C15.5356 7.63542 15.8678 7.81196 16.1039 7.97085L16.5323 8.26214L17.0045 8.11208C17.2668 8.03264 17.6165 7.90023 17.7739 7.81196C17.9226 7.73251 18.0537 7.68838 18.0537 7.71486C18.0537 7.86492 17.7302 8.37689 17.4592 8.65936C17.0919 9.05658 17.1969 9.09189 17.94 8.82708C18.386 8.67702 18.3947 8.67702 18.3073 8.84473C18.2548 8.933 17.9838 9.24195 17.6952 9.52442C17.2056 10.0099 17.1794 10.0629 17.1794 10.4689C17.1794 11.0956 16.8821 12.4021 16.5848 13.117C16.034 14.4588 14.8536 15.8446 13.6732 16.542C12.012 17.5218 9.79986 17.7689 7.93749 17.1952C7.31671 17.001 6.25 16.5067 6.25 16.4184C6.25 16.3919 6.57351 16.3566 6.96697 16.3478C7.78885 16.3301 8.61074 16.1006 9.31022 15.6946L9.78237 15.4121L9.24027 15.2267C8.47085 14.9619 7.78011 14.3528 7.60524 13.7791C7.55278 13.5937 7.57027 13.5849 8.0599 13.5849L8.56703 13.5761L8.13859 13.373C7.63147 13.117 7.16807 12.6845 6.94074 12.2432C6.77461 11.9254 6.56477 11.1221 6.62597 11.0603C6.64346 11.0339 6.82707 11.0868 7.03691 11.1574C7.64021 11.3781 7.71891 11.3251 7.36917 10.9544C6.71341 10.2835 6.5123 9.28609 6.82707 8.34159L6.97571 7.91788L7.55278 8.49165C8.73315 9.648 10.1234 10.3365 11.7147 10.5395L12.1519 10.5925Z" fill="white"/>
</svg>
